<svg aria-hidden="true" style="position: absolute; width: 0; height: 0; overflow: hidden;" version="1.1" xmlns="http://www.w3.org/2000/svg" xmlns:xlink="http://www.w3.org/1999/xlink">
<defs>
<symbol id="icon-magnifying-glass" viewBox="0 0 20 20">
<path d="M17.545 15.467l-3.779-3.779c0.57-0.935 0.898-2.035 0.898-3.21 0-3.417-2.961-6.377-6.378-6.377s-6.186 2.769-6.186 6.186c0 3.416 2.961 6.377 6.377 6.377 1.137 0 2.2-0.309 3.115-0.844l3.799 3.801c0.372 0.371 0.975 0.371 1.346 0l0.943-0.943c0.371-0.371 0.236-0.84-0.135-1.211zM4.004 8.287c0-2.366 1.917-4.283 4.282-4.283s4.474 2.107 4.474 4.474c0 2.365-1.918 4.283-4.283 4.283s-4.473-2.109-4.473-4.474z"></path>
</symbol>
<symbol id="icon-lines" viewBox="0 0 90 71" fill="none" xmlns="http://www.w3.org/2000/svg">
<path d="M1 40.5V1M30.5 47L58 19.5M48 69.5H88.5" stroke="#035ECA" stroke-width="1.5" stroke-linecap="round"/>
</symbol>
<symbol id="icon-star" fill="none" viewBox="0 0 28 28" xmlns="http://www.w3.org/2000/svg">
<path d="M14.4825 20.8614L19.9988 24.3563C20.704 24.8031 21.5794 24.1386 21.3702 23.3155L19.7764 17.0459C19.7315 16.8713 19.7368 16.6875 19.7917 16.5158C19.8466 16.3441 19.9489 16.1913 20.0868 16.0751L25.0335 11.9578C25.6835 11.4169 25.348 10.3381 24.5129 10.2839L18.0528 9.86468C17.8788 9.85225 17.7119 9.79064 17.5716 9.68704C17.4312 9.58343 17.3232 9.44208 17.2601 9.27946L14.8507 3.2121C14.7852 3.03949 14.6688 2.89089 14.5168 2.78602C14.3649 2.68116 14.1846 2.625 14 2.625C13.8154 2.625 13.6351 2.68116 13.4832 2.78602C13.3312 2.89089 13.2148 3.03949 13.1493 3.2121L10.74 9.27946C10.6768 9.44208 10.5688 9.58343 10.4285 9.68704C10.2881 9.79064 10.1212 9.85225 9.94721 9.86468L3.4871 10.2839C2.65201 10.3381 2.31653 11.4169 2.96651 11.9578L7.91325 16.0751C8.0511 16.1913 8.15336 16.3441 8.20827 16.5158C8.26317 16.6875 8.26849 16.8713 8.2236 17.0459L6.74553 22.8603C6.49444 23.848 7.54501 24.6453 8.39117 24.1092L13.5175 20.8614C13.6617 20.7696 13.8291 20.7208 14 20.7208C14.1709 20.7208 14.3383 20.7696 14.4825 20.8614V20.8614Z" stroke="#217BF4" stroke-width="1.5" stroke-linecap="round" stroke-linejoin="round"/>
</symbol>
<symbol id="icon-twitter" viewBox="0 0 36 36" fill="none" xmlns="http://www.w3.org/2000/svg">
<g id="Twitter">
<circle id="Ellipse 26" cx="18" cy="18" r="18" fill="white"/>
<g id="Frame">
<g id="Group">
<path id="Vector" d="M25.7627 12.1305C26.623 11.6148 27.2836 10.7983 27.5947 9.82546C26.7897 10.3029 25.898 10.6496 24.9489 10.8365C24.1889 10.0268 23.1061 9.52075 21.9078 9.52075C19.6067 9.52075 17.7412 11.3862 17.7412 13.6871C17.7412 14.0136 17.7781 14.3317 17.8491 14.6366C14.3864 14.4628 11.3163 12.8041 9.2614 10.2834C8.90276 10.8988 8.6973 11.6145 8.6973 12.378C8.6973 13.8235 9.43292 15.0988 10.5509 15.8459C9.86784 15.8243 9.22545 15.6369 8.66365 15.3248C8.66335 15.3422 8.66335 15.3596 8.66335 15.3772C8.66335 17.3959 10.0995 19.0799 12.0055 19.4626C11.6559 19.5578 11.2878 19.6087 10.9078 19.6087C10.6393 19.6087 10.3783 19.5826 10.124 19.5339C10.6541 21.1893 12.1928 22.3938 14.016 22.4275C12.5901 23.5449 10.7935 24.211 8.84155 24.211C8.50528 24.211 8.17361 24.1913 7.84766 24.1528C9.69149 25.335 11.8816 26.0247 14.2345 26.0247C21.898 26.0247 26.0887 19.676 26.0887 14.1702C26.0887 13.9896 26.0847 13.8099 26.0767 13.6312C26.8907 13.0438 27.5971 12.31 28.1557 11.4745C27.4085 11.8058 26.6055 12.0298 25.7627 12.1305Z" fill="#2B2B39"/>
</g>
</g>
</g>
</symbol>
<symbol id="icon-linkedin" viewBox="0 0 36 36" fill="none" xmlns="http://www.w3.org/2000/svg">
<g id="Linkedin">
<circle id="Ellipse 25" cx="18" cy="18" r="18" fill="white"/>
<g id="Linkedin_2">
<path id="Vector" d="M11.5678 13.5973C12.6755 13.5973 13.5735 12.6993 13.5735 11.5916C13.5735 10.4839 12.6755 9.58594 11.5678 9.58594C10.4601 9.58594 9.56213 10.4839 9.56213 11.5916C9.56213 12.6993 10.4601 13.5973 11.5678 13.5973Z" fill="#2B2B39"/>
<path id="Vector_2" d="M15.4661 15.117V26.2445H18.921V20.7417C18.921 19.2897 19.1942 17.8835 20.9945 17.8835C22.7701 17.8835 22.7921 19.5436 22.7921 20.8334V26.2454H26.2489V20.1431C26.2489 17.1456 25.6035 14.842 22.1 14.842C20.4179 14.842 19.2904 15.7651 18.8294 16.6387H18.7826V15.117H15.4661ZM9.83594 15.117H13.2964V26.2445H9.83594V15.117Z" fill="#2B2B39"/>
</g>
</g>
</symbol>
<symbol id="icon-instagram" viewBox="0 0 36 36" fill="none" xmlns="http://www.w3.org/2000/svg">
<g id="instagram">
<circle id="Ellipse 25" cx="18" cy="18" r="18" fill="white"/>
<g id="Frame">
<g id="Group">
<path id="Vector" d="M17.9542 10.2542C20.475 10.2542 20.75 10.2542 21.7583 10.3C22.675 10.3458 23.1792 10.4833 23.5 10.6208C23.9125 10.7583 24.2792 11.0333 24.6 11.3083C24.9208 11.6292 25.15 11.9958 25.2875 12.4083C25.425 12.7292 25.5625 13.2333 25.6083 14.15C25.6542 15.1583 25.6542 15.4333 25.6542 17.9542C25.6542 20.475 25.6542 20.75 25.6083 21.7583C25.5625 22.675 25.425 23.1792 25.2875 23.5C24.9667 24.325 24.325 24.9667 23.5 25.2875C23.1792 25.425 22.675 25.5625 21.7583 25.6083C20.75 25.6542 20.475 25.6542 17.9542 25.6542C15.4333 25.6542 15.1583 25.6542 14.15 25.6083C13.2333 25.5625 12.7292 25.425 12.4083 25.2875C11.9958 25.15 11.6292 24.875 11.3083 24.6C10.9875 24.2792 10.7583 23.9125 10.6208 23.5C10.4833 23.1792 10.3458 22.675 10.3 21.7583C10.2542 20.75 10.2542 20.475 10.2542 17.9542C10.2542 15.4333 10.2542 15.1583 10.3 14.15C10.3458 13.2333 10.4833 12.7292 10.6208 12.4083C10.7583 11.9958 11.0333 11.6292 11.3083 11.3083C11.6292 10.9875 11.9958 10.7583 12.4083 10.6208C12.7292 10.4833 13.2333 10.3458 14.15 10.3C15.1583 10.2542 15.4792 10.2542 17.9542 10.2542ZM17.9542 8.55835C15.3875 8.55835 15.0667 8.55835 14.0583 8.60418C13.05 8.65002 12.3625 8.78752 11.7667 9.06252C11.1708 9.29168 10.6208 9.65835 10.1625 10.1167C9.70418 10.575 9.29168 11.1708 9.06252 11.7667C8.83335 12.3625 8.65002 13.05 8.60418 14.0583C8.55835 15.0667 8.55835 15.3875 8.55835 17.9542C8.55835 20.5208 8.55835 20.8417 8.60418 21.85C8.65002 22.8583 8.78752 23.5458 9.06252 24.1417C9.29168 24.7375 9.65835 25.3333 10.1625 25.7917C10.6208 26.25 11.2167 26.6625 11.8125 26.8917C12.4083 27.1208 13.0958 27.3042 14.1042 27.35C15.1125 27.3958 15.4333 27.3958 18 27.3958C20.5667 27.3958 20.8875 27.3958 21.8958 27.35C22.9042 27.3042 23.5917 27.1667 24.1875 26.8917C25.4708 26.3875 26.4333 25.425 26.9375 24.1417C27.1667 23.5458 27.35 22.8583 27.3958 21.85C27.4417 20.8417 27.4417 20.5208 27.4417 17.9542C27.4417 15.3875 27.4417 15.0667 27.3958 14.0583C27.35 13.05 27.2125 12.3625 26.9375 11.7667C26.7083 11.125 26.3417 10.575 25.8375 10.1167C25.3792 9.65835 24.7833 9.24585 24.1875 9.01668C23.5917 8.78752 22.9042 8.60418 21.8958 8.55835C20.8417 8.55835 20.5208 8.55835 17.9542 8.55835Z" fill="#2B2B39"/>
<path id="Vector_2" d="M17.9529 13.1416C15.2945 13.1416 13.1404 15.2958 13.1404 17.9541C13.1404 20.6124 15.2945 22.7666 17.9529 22.7666C20.6112 22.7666 22.7654 20.6124 22.7654 17.9541C22.8112 15.2958 20.6571 13.1416 17.9529 13.1416ZM17.9529 21.1166C16.2112 21.1166 14.8362 19.6958 14.8362 17.9999C14.8362 16.2583 16.257 14.8833 17.9529 14.8833C19.6946 14.8833 21.0696 16.3041 21.0696 17.9999C21.1154 19.6958 19.6946 21.1166 17.9529 21.1166Z" fill="#2B2B39"/>
<path id="Vector_3" d="M22.9972 14.1042C23.63 14.1042 24.143 13.5912 24.143 12.9583C24.143 12.3255 23.63 11.8125 22.9972 11.8125C22.3643 11.8125 21.8513 12.3255 21.8513 12.9583C21.8513 13.5912 22.3643 14.1042 22.9972 14.1042Z" fill="#2B2B39"/>
</g>
</g>
</g>
</symbol>
<symbol id="icon-trophy" viewBox="0 0 28 28" fill="none" xmlns="http://www.w3.org/2000/svg">
<g id="Trophy">
<g id="Trophy_2">
<path id="Vector" d="M6.125 6.125V12.1511C6.125 16.4934 9.59816 20.0926 13.9403 20.1248C14.9794 20.1327 16.0099 19.9348 16.9722 19.5426C17.9345 19.1504 18.8097 18.5716 19.5473 17.8395C20.2849 17.1075 20.8703 16.2367 21.2698 15.2774C21.6693 14.3181 21.875 13.2892 21.875 12.25V6.125C21.875 5.89294 21.7828 5.67038 21.6187 5.50628C21.4546 5.34219 21.2321 5.25 21 5.25H7C6.76794 5.25 6.54538 5.34219 6.38128 5.50628C6.21719 5.67038 6.125 5.89294 6.125 6.125Z" stroke="#217BF4" stroke-width="2" stroke-linecap="round" stroke-linejoin="round"/>
<path id="Vector_2" d="M10.5 24.5H17.5" stroke="#217BF4" stroke-width="2" stroke-linecap="round" stroke-linejoin="round"/>
<path id="Vector_3" d="M14 20.125V24.5" stroke="#217BF4" stroke-width="2" stroke-linecap="round" stroke-linejoin="round"/>
<path id="Vector_4" d="M21.6797 14H22.7499C23.6781 14 24.5684 13.6313 25.2247 12.9749C25.8811 12.3185 26.2499 11.4283 26.2499 10.5V8.75C26.2499 8.51794 26.1577 8.29538 25.9936 8.13128C25.8295 7.96719 25.6069 7.875 25.3749 7.875H21.8749" stroke="#217BF4" stroke-width="2" stroke-linecap="round" stroke-linejoin="round"/>
<path id="Vector_5" d="M6.33809 14H5.23438C4.30612 14 3.41588 13.6313 2.7595 12.9749C2.10312 12.3185 1.73438 11.4283 1.73438 10.5V8.75C1.73438 8.51794 1.82656 8.29538 1.99066 8.13128C2.15475 7.96719 2.37731 7.875 2.60938 7.875H6.10938" stroke="#217BF4" stroke-width="2" stroke-linecap="round" stroke-linejoin="round"/>
</g>
</g>
</symbol>
<symbol id="icon-right-arrow" viewBox="0 0 10 10" fill="none" xmlns="http://www.w3.org/2000/svg">
<path d="M1.5625 5H8.4375" stroke="#217BF4" stroke-width="1.2" stroke-linecap="round" stroke-linejoin="round"/>
<path d="M5.625 2.1875L8.4375 5L5.625 7.8125" stroke="#217BF4" stroke-width="1.2" stroke-linecap="round" stroke-linejoin="round"/>
</symbol>
<symbol id="icon-logo" viewBox="0 0 35 34" fill="none" xmlns="http://www.w3.org/2000/svg">
<g id="Group">
<path id="Subtract" d="M34.0013 16.9998C34.0013 26.3887 26.3901 33.9998 17.0013 33.9998C13.0609 33.9998 9.43369 32.6592 6.55078 30.4093L24.7833 12.1768C25.6535 13.5773 26.1551 15.2292 26.1551 16.9998C26.1551 21.1925 23.3363 24.7269 19.4905 25.8111C18.9167 25.0652 18.0151 24.5844 17.0013 24.5844C15.2679 24.5844 13.8628 25.9896 13.8628 27.7229C13.8628 29.4562 15.2679 30.8613 17.0013 30.8613C18.2989 30.8613 19.4126 30.0738 19.8905 28.9507C25.2853 27.6511 29.2936 22.7935 29.2936 16.9998C29.2936 14.3617 28.4612 11.9159 27.0465 9.91356L30.4107 6.54932C32.6607 9.43223 34.0013 13.0595 34.0013 16.9998Z" fill="#FFAF2E"/>
<path id="Subtract_2" d="M6.95477 24.0862L3.59053 27.4505C1.34058 24.5676 0 20.9403 0 17C0 7.61116 7.61116 0 17 0C20.9403 0 24.5676 1.34058 27.4505 3.59053L9.218 21.823C8.34783 20.4225 7.84615 18.7708 7.84615 17C7.84615 12.8073 10.6649 9.27294 14.5108 8.18866C15.0846 8.93463 15.9861 9.41538 17 9.41538C18.7333 9.41538 20.1385 8.01024 20.1385 6.27692C20.1385 4.54359 18.7333 3.13845 17 3.13845C15.7024 3.13845 14.5887 3.92597 14.1108 5.04914C8.71598 6.34871 4.70768 11.2063 4.70768 17C4.70768 19.6379 5.54001 22.0838 6.95477 24.0862Z" fill="#F04148"/>
<circle id="Ellipse 5" cx="16.9991" cy="6.27693" r="1.30769" fill="#F04148"/>
<circle id="Ellipse 6" cx="16.9991" cy="27.7232" r="1.30769" fill="#FFAF2E"/>
</g>
</symbol>
<symbol id="icon-facebook" viewBox="0 0 36 36" fill="none" xmlns="http://www.w3.org/2000/svg">
<g id="facebook">
<circle id="Ellipse 25" cx="18" cy="18" r="18" fill="white"/>
<g id="Frame">
<path id="Vector" d="M16.5139 18.0949V27.2431H19.5486V18.2378H22.0556L22.4514 14.9502H19.5486V12.9491C19.5486 11.9485 19.8125 11.3767 21 11.3767H22.5833V8.51794C22.3194 8.51794 21.3958 8.375 20.3403 8.375C18.0972 8.375 16.5139 9.94734 16.5139 12.6632V14.9502H13.875V18.0949H16.5139Z" fill="#2B2B39"/>
</g>
</g>
</symbol>
<symbol id="icon-arrow-right2" viewBox="0 0 32 32">
<path d="M19.414 27.414l10-10c0.781-0.781 0.781-2.047 0-2.828l-10-10c-0.781-0.781-2.047-0.781-2.828 0s-0.781 2.047 0 2.828l6.586 6.586h-19.172c-1.105 0-2 0.895-2 2s0.895 2 2 2h19.172l-6.586 6.586c-0.39 0.39-0.586 0.902-0.586 1.414s0.195 1.024 0.586 1.414c0.781 0.781 2.047 0.781 2.828 0z"></path>
</symbol>
<symbol id="icon-check" viewBox="0 0 24 24" fill="none" xmlns="http://www.w3.org/2000/svg">
<circle cx="12" cy="12" r="12" fill="#217BF4"/>
<path d="M16.125 9.37537L10.875 14.6251L8.25 12.0004" stroke="white" stroke-width="2" stroke-linecap="round" stroke-linejoin="round"/>
</symbol>
<symbol id="icon-union" viewBox="0 0 141 156" fill="none" xmlns="http://www.w3.org/2000/svg">
<g id="Union" filter="url(#filter0_f_5_1097)">
<path d="M4 3C4 3.55225 3.55228 4 3 4C2.44772 4 2 3.55225 2 3C2 2.44775 2.44772 2 3 2C3.55228 2 4 2.44775 4 3Z" fill="#7F7FA0"/>
<path d="M4 48C4 48.5522 3.55228 49 3 49C2.44772 49 2 48.5522 2 48C2 47.4478 2.44772 47 3 47C3.55228 47 4 47.4478 4 48Z" fill="#7F7FA0"/>
<path d="M4 93C4 93.5522 3.55228 94 3 94C2.44772 94 2 93.5522 2 93C2 92.4478 2.44772 92 3 92C3.55228 92 4 92.4478 4 93Z" fill="#7F7FA0"/>
<path d="M4 138C4 138.552 3.55228 139 3 139C2.44772 139 2 138.552 2 138C2 137.448 2.44772 137 3 137C3.55228 137 4 137.448 4 138Z" fill="#7F7FA0"/>
<path d="M4 18C4 18.5522 3.55228 19 3 19C2.44772 19 2 18.5522 2 18C2 17.4478 2.44772 17 3 17C3.55228 17 4 17.4478 4 18Z" fill="#7F7FA0"/>
<path d="M4 63C4 63.5522 3.55228 64 3 64C2.44772 64 2 63.5522 2 63C2 62.4478 2.44772 62 3 62C3.55228 62 4 62.4478 4 63Z" fill="#7F7FA0"/>
<path d="M4 108C4 108.552 3.55228 109 3 109C2.44772 109 2 108.552 2 108C2 107.448 2.44772 107 3 107C3.55228 107 4 107.448 4 108Z" fill="#7F7FA0"/>
<path d="M4 153C4 153.552 3.55228 154 3 154C2.44772 154 2 153.552 2 153C2 152.448 2.44772 152 3 152C3.55228 152 4 152.448 4 153Z" fill="#7F7FA0"/>
<path d="M4 33C4 33.5522 3.55228 34 3 34C2.44772 34 2 33.5522 2 33C2 32.4478 2.44772 32 3 32C3.55228 32 4 32.4478 4 33Z" fill="#7F7FA0"/>
<path d="M4 78C4 78.5522 3.55228 79 3 79C2.44772 79 2 78.5522 2 78C2 77.4478 2.44772 77 3 77C3.55228 77 4 77.4478 4 78Z" fill="#7F7FA0"/>
<path d="M4 123C4 123.552 3.55228 124 3 124C2.44772 124 2 123.552 2 123C2 122.448 2.44772 122 3 122C3.55228 122 4 122.448 4 123Z" fill="#7F7FA0"/>
<path d="M19 3C19 3.55225 18.5523 4 18 4C17.4477 4 17 3.55225 17 3C17 2.44775 17.4477 2 18 2C18.5523 2 19 2.44775 19 3Z" fill="#7F7FA0"/>
<path d="M19 48C19 48.5522 18.5523 49 18 49C17.4477 49 17 48.5522 17 48C17 47.4478 17.4477 47 18 47C18.5523 47 19 47.4478 19 48Z" fill="#7F7FA0"/>
<path d="M19 93C19 93.5522 18.5523 94 18 94C17.4477 94 17 93.5522 17 93C17 92.4478 17.4477 92 18 92C18.5523 92 19 92.4478 19 93Z" fill="#7F7FA0"/>
<path d="M19 138C19 138.552 18.5523 139 18 139C17.4477 139 17 138.552 17 138C17 137.448 17.4477 137 18 137C18.5523 137 19 137.448 19 138Z" fill="#7F7FA0"/>
<path d="M19 18C19 18.5522 18.5523 19 18 19C17.4477 19 17 18.5522 17 18C17 17.4478 17.4477 17 18 17C18.5523 17 19 17.4478 19 18Z" fill="#7F7FA0"/>
<path d="M19 63C19 63.5522 18.5523 64 18 64C17.4477 64 17 63.5522 17 63C17 62.4478 17.4477 62 18 62C18.5523 62 19 62.4478 19 63Z" fill="#7F7FA0"/>
<path d="M19 108C19 108.552 18.5523 109 18 109C17.4477 109 17 108.552 17 108C17 107.448 17.4477 107 18 107C18.5523 107 19 107.448 19 108Z" fill="#7F7FA0"/>
<path d="M19 153C19 153.552 18.5523 154 18 154C17.4477 154 17 153.552 17 153C17 152.448 17.4477 152 18 152C18.5523 152 19 152.448 19 153Z" fill="#7F7FA0"/>
<path d="M19 33C19 33.5522 18.5523 34 18 34C17.4477 34 17 33.5522 17 33C17 32.4478 17.4477 32 18 32C18.5523 32 19 32.4478 19 33Z" fill="#7F7FA0"/>
<path d="M19 78C19 78.5522 18.5523 79 18 79C17.4477 79 17 78.5522 17 78C17 77.4478 17.4477 77 18 77C18.5523 77 19 77.4478 19 78Z" fill="#7F7FA0"/>
<path d="M19 123C19 123.552 18.5523 124 18 124C17.4477 124 17 123.552 17 123C17 122.448 17.4477 122 18 122C18.5523 122 19 122.448 19 123Z" fill="#7F7FA0"/>
<path d="M33 4C33.5523 4 34 3.55225 34 3C34 2.44775 33.5523 2 33 2C32.4477 2 32 2.44775 32 3C32 3.55225 32.4477 4 33 4Z" fill="#7F7FA0"/>
<path d="M33 49C33.5523 49 34 48.5522 34 48C34 47.4478 33.5523 47 33 47C32.4477 47 32 47.4478 32 48C32 48.5522 32.4477 49 33 49Z" fill="#7F7FA0"/>
<path d="M33 94C33.5523 94 34 93.5522 34 93C34 92.4478 33.5523 92 33 92C32.4477 92 32 92.4478 32 93C32 93.5522 32.4477 94 33 94Z" fill="#7F7FA0"/>
<path d="M33 139C33.5523 139 34 138.552 34 138C34 137.448 33.5523 137 33 137C32.4477 137 32 137.448 32 138C32 138.552 32.4477 139 33 139Z" fill="#7F7FA0"/>
<path d="M33 19C33.5523 19 34 18.5522 34 18C34 17.4478 33.5523 17 33 17C32.4477 17 32 17.4478 32 18C32 18.5522 32.4477 19 33 19Z" fill="#7F7FA0"/>
<path d="M33 64C33.5523 64 34 63.5522 34 63C34 62.4478 33.5523 62 33 62C32.4477 62 32 62.4478 32 63C32 63.5522 32.4477 64 33 64Z" fill="#7F7FA0"/>
<path d="M33 109C33.5523 109 34 108.552 34 108C34 107.448 33.5523 107 33 107C32.4477 107 32 107.448 32 108C32 108.552 32.4477 109 33 109Z" fill="#7F7FA0"/>
<path d="M33 154C33.5523 154 34 153.552 34 153C34 152.448 33.5523 152 33 152C32.4477 152 32 152.448 32 153C32 153.552 32.4477 154 33 154Z" fill="#7F7FA0"/>
<path d="M33 34C33.5523 34 34 33.5522 34 33C34 32.4478 33.5523 32 33 32C32.4477 32 32 32.4478 32 33C32 33.5522 32.4477 34 33 34Z" fill="#7F7FA0"/>
<path d="M33 79C33.5523 79 34 78.5522 34 78C34 77.4478 33.5523 77 33 77C32.4477 77 32 77.4478 32 78C32 78.5522 32.4477 79 33 79Z" fill="#7F7FA0"/>
<path d="M33 124C33.5523 124 34 123.552 34 123C34 122.448 33.5523 122 33 122C32.4477 122 32 122.448 32 123C32 123.552 32.4477 124 33 124Z" fill="#7F7FA0"/>
<path d="M49 3C49 3.55225 48.5523 4 48 4C47.4477 4 47 3.55225 47 3C47 2.44775 47.4477 2 48 2C48.5523 2 49 2.44775 49 3Z" fill="#7F7FA0"/>
<path d="M49 48C49 48.5522 48.5523 49 48 49C47.4477 49 47 48.5522 47 48C47 47.4478 47.4477 47 48 47C48.5523 47 49 47.4478 49 48Z" fill="#7F7FA0"/>
<path d="M49 93C49 93.5522 48.5523 94 48 94C47.4477 94 47 93.5522 47 93C47 92.4478 47.4477 92 48 92C48.5523 92 49 92.4478 49 93Z" fill="#7F7FA0"/>
<path d="M49 138C49 138.552 48.5523 139 48 139C47.4477 139 47 138.552 47 138C47 137.448 47.4477 137 48 137C48.5523 137 49 137.448 49 138Z" fill="#7F7FA0"/>
<path d="M49 18C49 18.5522 48.5523 19 48 19C47.4477 19 47 18.5522 47 18C47 17.4478 47.4477 17 48 17C48.5523 17 49 17.4478 49 18Z" fill="#7F7FA0"/>
<path d="M49 63C49 63.5522 48.5523 64 48 64C47.4477 64 47 63.5522 47 63C47 62.4478 47.4477 62 48 62C48.5523 62 49 62.4478 49 63Z" fill="#7F7FA0"/>
<path d="M49 108C49 108.552 48.5523 109 48 109C47.4477 109 47 108.552 47 108C47 107.448 47.4477 107 48 107C48.5523 107 49 107.448 49 108Z" fill="#7F7FA0"/>
<path d="M49 153C49 153.552 48.5523 154 48 154C47.4477 154 47 153.552 47 153C47 152.448 47.4477 152 48 152C48.5523 152 49 152.448 49 153Z" fill="#7F7FA0"/>
<path d="M49 33C49 33.5522 48.5523 34 48 34C47.4477 34 47 33.5522 47 33C47 32.4478 47.4477 32 48 32C48.5523 32 49 32.4478 49 33Z" fill="#7F7FA0"/>
<path d="M49 78C49 78.5522 48.5523 79 48 79C47.4477 79 47 78.5522 47 78C47 77.4478 47.4477 77 48 77C48.5523 77 49 77.4478 49 78Z" fill="#7F7FA0"/>
<path d="M49 123C49 123.552 48.5523 124 48 124C47.4477 124 47 123.552 47 123C47 122.448 47.4477 122 48 122C48.5523 122 49 122.448 49 123Z" fill="#7F7FA0"/>
<path d="M63 4C63.5523 4 64 3.55225 64 3C64 2.44775 63.5523 2 63 2C62.4477 2 62 2.44775 62 3C62 3.55225 62.4477 4 63 4Z" fill="#7F7FA0"/>
<path d="M63 49C63.5523 49 64 48.5522 64 48C64 47.4478 63.5523 47 63 47C62.4477 47 62 47.4478 62 48C62 48.5522 62.4477 49 63 49Z" fill="#7F7FA0"/>
<path d="M63 94C63.5523 94 64 93.5522 64 93C64 92.4478 63.5523 92 63 92C62.4477 92 62 92.4478 62 93C62 93.5522 62.4477 94 63 94Z" fill="#7F7FA0"/>
<path d="M63 139C63.5523 139 64 138.552 64 138C64 137.448 63.5523 137 63 137C62.4477 137 62 137.448 62 138C62 138.552 62.4477 139 63 139Z" fill="#7F7FA0"/>
<path d="M63 19C63.5523 19 64 18.5522 64 18C64 17.4478 63.5523 17 63 17C62.4477 17 62 17.4478 62 18C62 18.5522 62.4477 19 63 19Z" fill="#7F7FA0"/>
<path d="M63 64C63.5523 64 64 63.5522 64 63C64 62.4478 63.5523 62 63 62C62.4477 62 62 62.4478 62 63C62 63.5522 62.4477 64 63 64Z" fill="#7F7FA0"/>
<path d="M63 109C63.5523 109 64 108.552 64 108C64 107.448 63.5523 107 63 107C62.4477 107 62 107.448 62 108C62 108.552 62.4477 109 63 109Z" fill="#7F7FA0"/>
<path d="M63 154C63.5523 154 64 153.552 64 153C64 152.448 63.5523 152 63 152C62.4477 152 62 152.448 62 153C62 153.552 62.4477 154 63 154Z" fill="#7F7FA0"/>
<path d="M63 34C63.5523 34 64 33.5522 64 33C64 32.4478 63.5523 32 63 32C62.4477 32 62 32.4478 62 33C62 33.5522 62.4477 34 63 34Z" fill="#7F7FA0"/>
<path d="M63 79C63.5523 79 64 78.5522 64 78C64 77.4478 63.5523 77 63 77C62.4477 77 62 77.4478 62 78C62 78.5522 62.4477 79 63 79Z" fill="#7F7FA0"/>
<path d="M63 124C63.5523 124 64 123.552 64 123C64 122.448 63.5523 122 63 122C62.4477 122 62 122.448 62 123C62 123.552 62.4477 124 63 124Z" fill="#7F7FA0"/>
<path d="M79 3C79 3.55225 78.5523 4 78 4C77.4477 4 77 3.55225 77 3C77 2.44775 77.4477 2 78 2C78.5523 2 79 2.44775 79 3Z" fill="#7F7FA0"/>
<path d="M79 48C79 48.5522 78.5523 49 78 49C77.4477 49 77 48.5522 77 48C77 47.4478 77.4477 47 78 47C78.5523 47 79 47.4478 79 48Z" fill="#7F7FA0"/>
<path d="M79 93C79 93.5522 78.5523 94 78 94C77.4477 94 77 93.5522 77 93C77 92.4478 77.4477 92 78 92C78.5523 92 79 92.4478 79 93Z" fill="#7F7FA0"/>
<path d="M79 138C79 138.552 78.5523 139 78 139C77.4477 139 77 138.552 77 138C77 137.448 77.4477 137 78 137C78.5523 137 79 137.448 79 138Z" fill="#7F7FA0"/>
<path d="M79 18C79 18.5522 78.5523 19 78 19C77.4477 19 77 18.5522 77 18C77 17.4478 77.4477 17 78 17C78.5523 17 79 17.4478 79 18Z" fill="#7F7FA0"/>
<path d="M79 63C79 63.5522 78.5523 64 78 64C77.4477 64 77 63.5522 77 63C77 62.4478 77.4477 62 78 62C78.5523 62 79 62.4478 79 63Z" fill="#7F7FA0"/>
<path d="M79 108C79 108.552 78.5523 109 78 109C77.4477 109 77 108.552 77 108C77 107.448 77.4477 107 78 107C78.5523 107 79 107.448 79 108Z" fill="#7F7FA0"/>
<path d="M79 153C79 153.552 78.5523 154 78 154C77.4477 154 77 153.552 77 153C77 152.448 77.4477 152 78 152C78.5523 152 79 152.448 79 153Z" fill="#7F7FA0"/>
<path d="M79 33C79 33.5522 78.5523 34 78 34C77.4477 34 77 33.5522 77 33C77 32.4478 77.4477 32 78 32C78.5523 32 79 32.4478 79 33Z" fill="#7F7FA0"/>
<path d="M79 78C79 78.5522 78.5523 79 78 79C77.4477 79 77 78.5522 77 78C77 77.4478 77.4477 77 78 77C78.5523 77 79 77.4478 79 78Z" fill="#7F7FA0"/>
<path d="M79 123C79 123.552 78.5523 124 78 124C77.4477 124 77 123.552 77 123C77 122.448 77.4477 122 78 122C78.5523 122 79 122.448 79 123Z" fill="#7F7FA0"/>
<path d="M93 4C93.5523 4 94 3.55225 94 3C94 2.44775 93.5523 2 93 2C92.4477 2 92 2.44775 92 3C92 3.55225 92.4477 4 93 4Z" fill="#7F7FA0"/>
<path d="M93 49C93.5523 49 94 48.5522 94 48C94 47.4478 93.5523 47 93 47C92.4477 47 92 47.4478 92 48C92 48.5522 92.4477 49 93 49Z" fill="#7F7FA0"/>
<path d="M93 94C93.5523 94 94 93.5522 94 93C94 92.4478 93.5523 92 93 92C92.4477 92 92 92.4478 92 93C92 93.5522 92.4477 94 93 94Z" fill="#7F7FA0"/>
<path d="M93 139C93.5523 139 94 138.552 94 138C94 137.448 93.5523 137 93 137C92.4477 137 92 137.448 92 138C92 138.552 92.4477 139 93 139Z" fill="#7F7FA0"/>
<path d="M93 19C93.5523 19 94 18.5522 94 18C94 17.4478 93.5523 17 93 17C92.4477 17 92 17.4478 92 18C92 18.5522 92.4477 19 93 19Z" fill="#7F7FA0"/>
<path d="M93 64C93.5523 64 94 63.5522 94 63C94 62.4478 93.5523 62 93 62C92.4477 62 92 62.4478 92 63C92 63.5522 92.4477 64 93 64Z" fill="#7F7FA0"/>
<path d="M93 109C93.5523 109 94 108.552 94 108C94 107.448 93.5523 107 93 107C92.4477 107 92 107.448 92 108C92 108.552 92.4477 109 93 109Z" fill="#7F7FA0"/>
<path d="M93 154C93.5523 154 94 153.552 94 153C94 152.448 93.5523 152 93 152C92.4477 152 92 152.448 92 153C92 153.552 92.4477 154 93 154Z" fill="#7F7FA0"/>
<path d="M93 34C93.5523 34 94 33.5522 94 33C94 32.4478 93.5523 32 93 32C92.4477 32 92 32.4478 92 33C92 33.5522 92.4477 34 93 34Z" fill="#7F7FA0"/>
<path d="M93 79C93.5523 79 94 78.5522 94 78C94 77.4478 93.5523 77 93 77C92.4477 77 92 77.4478 92 78C92 78.5522 92.4477 79 93 79Z" fill="#7F7FA0"/>
<path d="M93 124C93.5523 124 94 123.552 94 123C94 122.448 93.5523 122 93 122C92.4477 122 92 122.448 92 123C92 123.552 92.4477 124 93 124Z" fill="#7F7FA0"/>
<path d="M109 3C109 3.55225 108.552 4 108 4C107.448 4 107 3.55225 107 3C107 2.44775 107.448 2 108 2C108.552 2 109 2.44775 109 3Z" fill="#7F7FA0"/>
<path d="M109 48C109 48.5522 108.552 49 108 49C107.448 49 107 48.5522 107 48C107 47.4478 107.448 47 108 47C108.552 47 109 47.4478 109 48Z" fill="#7F7FA0"/>
<path d="M109 93C109 93.5522 108.552 94 108 94C107.448 94 107 93.5522 107 93C107 92.4478 107.448 92 108 92C108.552 92 109 92.4478 109 93Z" fill="#7F7FA0"/>
<path d="M109 138C109 138.552 108.552 139 108 139C107.448 139 107 138.552 107 138C107 137.448 107.448 137 108 137C108.552 137 109 137.448 109 138Z" fill="#7F7FA0"/>
<path d="M109 18C109 18.5522 108.552 19 108 19C107.448 19 107 18.5522 107 18C107 17.4478 107.448 17 108 17C108.552 17 109 17.4478 109 18Z" fill="#7F7FA0"/>
<path d="M109 63C109 63.5522 108.552 64 108 64C107.448 64 107 63.5522 107 63C107 62.4478 107.448 62 108 62C108.552 62 109 62.4478 109 63Z" fill="#7F7FA0"/>
<path d="M109 108C109 108.552 108.552 109 108 109C107.448 109 107 108.552 107 108C107 107.448 107.448 107 108 107C108.552 107 109 107.448 109 108Z" fill="#7F7FA0"/>
<path d="M109 153C109 153.552 108.552 154 108 154C107.448 154 107 153.552 107 153C107 152.448 107.448 152 108 152C108.552 152 109 152.448 109 153Z" fill="#7F7FA0"/>
<path d="M109 33C109 33.5522 108.552 34 108 34C107.448 34 107 33.5522 107 33C107 32.4478 107.448 32 108 32C108.552 32 109 32.4478 109 33Z" fill="#7F7FA0"/>
<path d="M109 78C109 78.5522 108.552 79 108 79C107.448 79 107 78.5522 107 78C107 77.4478 107.448 77 108 77C108.552 77 109 77.4478 109 78Z" fill="#7F7FA0"/>
<path d="M109 123C109 123.552 108.552 124 108 124C107.448 124 107 123.552 107 123C107 122.448 107.448 122 108 122C108.552 122 109 122.448 109 123Z" fill="#7F7FA0"/>
<path d="M123 4C123.552 4 124 3.55225 124 3C124 2.44775 123.552 2 123 2C122.448 2 122 2.44775 122 3C122 3.55225 122.448 4 123 4Z" fill="#7F7FA0"/>
<path d="M123 49C123.552 49 124 48.5522 124 48C124 47.4478 123.552 47 123 47C122.448 47 122 47.4478 122 48C122 48.5522 122.448 49 123 49Z" fill="#7F7FA0"/>
<path d="M123 94C123.552 94 124 93.5522 124 93C124 92.4478 123.552 92 123 92C122.448 92 122 92.4478 122 93C122 93.5522 122.448 94 123 94Z" fill="#7F7FA0"/>
<path d="M123 139C123.552 139 124 138.552 124 138C124 137.448 123.552 137 123 137C122.448 137 122 137.448 122 138C122 138.552 122.448 139 123 139Z" fill="#7F7FA0"/>
<path d="M123 19C123.552 19 124 18.5522 124 18C124 17.4478 123.552 17 123 17C122.448 17 122 17.4478 122 18C122 18.5522 122.448 19 123 19Z" fill="#7F7FA0"/>
<path d="M123 64C123.552 64 124 63.5522 124 63C124 62.4478 123.552 62 123 62C122.448 62 122 62.4478 122 63C122 63.5522 122.448 64 123 64Z" fill="#7F7FA0"/>
<path d="M123 109C123.552 109 124 108.552 124 108C124 107.448 123.552 107 123 107C122.448 107 122 107.448 122 108C122 108.552 122.448 109 123 109Z" fill="#7F7FA0"/>
<path d="M123 154C123.552 154 124 153.552 124 153C124 152.448 123.552 152 123 152C122.448 152 122 152.448 122 153C122 153.552 122.448 154 123 154Z" fill="#7F7FA0"/>
<path d="M123 34C123.552 34 124 33.5522 124 33C124 32.4478 123.552 32 123 32C122.448 32 122 32.4478 122 33C122 33.5522 122.448 34 123 34Z" fill="#7F7FA0"/>
<path d="M123 79C123.552 79 124 78.5522 124 78C124 77.4478 123.552 77 123 77C122.448 77 122 77.4478 122 78C122 78.5522 122.448 79 123 79Z" fill="#7F7FA0"/>
<path d="M123 124C123.552 124 124 123.552 124 123C124 122.448 123.552 122 123 122C122.448 122 122 122.448 122 123C122 123.552 122.448 124 123 124Z" fill="#7F7FA0"/>
<path d="M139 3C139 3.55225 138.552 4 138 4C137.448 4 137 3.55225 137 3C137 2.44775 137.448 2 138 2C138.552 2 139 2.44775 139 3Z" fill="#7F7FA0"/>
<path d="M139 48C139 48.5522 138.552 49 138 49C137.448 49 137 48.5522 137 48C137 47.4478 137.448 47 138 47C138.552 47 139 47.4478 139 48Z" fill="#7F7FA0"/>
<path d="M139 93C139 93.5522 138.552 94 138 94C137.448 94 137 93.5522 137 93C137 92.4478 137.448 92 138 92C138.552 92 139 92.4478 139 93Z" fill="#7F7FA0"/>
<path d="M139 138C139 138.552 138.552 139 138 139C137.448 139 137 138.552 137 138C137 137.448 137.448 137 138 137C138.552 137 139 137.448 139 138Z" fill="#7F7FA0"/>
<path d="M139 18C139 18.5522 138.552 19 138 19C137.448 19 137 18.5522 137 18C137 17.4478 137.448 17 138 17C138.552 17 139 17.4478 139 18Z" fill="#7F7FA0"/>
<path d="M139 63C139 63.5522 138.552 64 138 64C137.448 64 137 63.5522 137 63C137 62.4478 137.448 62 138 62C138.552 62 139 62.4478 139 63Z" fill="#7F7FA0"/>
<path d="M139 108C139 108.552 138.552 109 138 109C137.448 109 137 108.552 137 108C137 107.448 137.448 107 138 107C138.552 107 139 107.448 139 108Z" fill="#7F7FA0"/>
<path d="M139 153C139 153.552 138.552 154 138 154C137.448 154 137 153.552 137 153C137 152.448 137.448 152 138 152C138.552 152 139 152.448 139 153Z" fill="#7F7FA0"/>
<path d="M139 33C139 33.5522 138.552 34 138 34C137.448 34 137 33.5522 137 33C137 32.4478 137.448 32 138 32C138.552 32 139 32.4478 139 33Z" fill="#7F7FA0"/>
<path d="M139 78C139 78.5522 138.552 79 138 79C137.448 79 137 78.5522 137 78C137 77.4478 137.448 77 138 77C138.552 77 139 77.4478 139 78Z" fill="#7F7FA0"/>
<path d="M139 123C139 123.552 138.552 124 138 124C137.448 124 137 123.552 137 123C137 122.448 137.448 122 138 122C138.552 122 139 122.448 139 123Z" fill="#7F7FA0"/>
</g>
<filter id="filter0_f_5_1097" x="0" y="0" width="141" height="156" filterUnits="userSpaceOnUse" color-interpolation-filters="sRGB">
<feFlood flood-opacity="0" result="BackgroundImageFix"/>
<feBlend mode="normal" in="SourceGraphic" in2="BackgroundImageFix" result="shape"/>
<feGaussianBlur stdDeviation="1" result="effect1_foregroundBlur_5_1097"/>
</filter>
</symbol>


</defs>
</svg>
